PathFileType	4	(X/Y/Z)	16_1_34_p1_0-297.trc
DataRate	CameraRate	NumFrames	NumMarkers	Units	OrigDataRate	OrigDataStartFrame	OrigNumFrames
56.0	56.0	7	27	m	56.0	149	298
Frame#	Time	RHip			RKnee			RAnkle			RBigToe			RSmallToe			RHeel			LHip			LKnee			LAnkle			LBigToe			LSmallToe			LHeel			Neck			Head			Nose			RShoulder			RElbow			RWrist			RThumb			RIndex			RPinky			LShoulder			LElbow			LWrist			LThumb			LIndex			LPinky			
		X1	Y1	Z1	X2	Y2	Z2	X3	Y3	Z3	X4	Y4	Z4	X5	Y5	Z5	X6	Y6	Z6	X7	Y7	Z7	X8	Y8	Z8	X9	Y9	Z9	X10	Y10	Z10	X11	Y11	Z11	X12	Y12	Z12	X13	Y13	Z13	X14	Y14	Z14	X15	Y15	Z15	X16	Y16	Z16	X17	Y17	Z17	X18	Y18	Z18	X19	Y19	Z19	X20	Y20	Z20	X21	Y21	Z21	X22	Y22	Z22	X23	Y23	Z23	X24	Y24	Z24	X25	Y25	Z25	X26	Y26	Z26	X27	Y27	Z27	
149	2.6607142857142856	0.30444812671047344	0.4658781265452529	0.5219625299428409	0.29785287107750485	0.5991970134113563	0.9619380840239701	0.27846435190341656	0.6551555178803672	1.3560578625178428	0.2937133991599276	0.43949052260526356	1.3662017337871146	0.33308284940152766	0.4769512411979367	1.3764765229795997	0.23733207834494224	0.7670791026886605	1.4409994679236091	0.08658396874562524	0.4650996656823016	0.5303681420263233	0.06509066061685094	0.5751024695830502	0.9397271212615523	0.05457060699957577	0.6805972232258806	1.381615197021467	0.01968957086346723	0.43522687818001576	1.3623921469107239	-0.02639892274415886	0.5201377199733659	1.381823547801975	0.06873119579286238	0.7497224883744736	1.4338037173621359	0.17672728402956245	0.39460087029607455	-0.1445571144594905	0.18761451571229376	0.31286787049390963	-0.3896807185350595	0.17582557428247256	0.25328686182193155	-0.24935464224048642	0.3667394500963538	0.42244128547291765	-0.050112122268452075	0.4477736378708047	0.4697792869312173	0.2322170936670974	0.5332464691443066	0.4010531104845803	0.50896177349232	0.5296024905372246	0.34498851695743366	0.6312556434540584	0.5521534372620166	0.32714592324237335	0.648959582964241	0.5067363822710517	0.38848945271066126	0.653780027915227	0.005967648163691737	0.416764107217046	-0.04229368165456354	-0.06845980701214786	0.486806660951366	0.2443518006817765	-0.10519834781658656	0.35414240146908366	0.5117622668875207	-0.06125437364143971	0.3346634365376727	0.6432931321242807	-0.10059996753719813	0.27798296121294946	0.6439809449043737	-0.12307920190424844	0.3919879330481642	0.6643360414387317
150	2.6785714285714284	0.30444401369264695	0.46580774676184256	0.5219906618138944	0.3017044761223393	0.5826971472075729	0.9605106481839558	0.2842447810896194	0.6561016402501729	1.3520111018253689	0.28881944283299366	0.4253543830301924	1.3599589743241174	0.32701614011993535	0.47054573095157814	1.3739401545013188	0.23835280207394902	0.7662419753594352	1.4358752445846992	0.08661544671653838	0.46519576832151477	0.5305811907465632	0.06506090123405468	0.5751648952635163	0.93981342263849	0.05456824501102998	0.6808747135562998	1.381779988057843	0.015271448902681343	0.44866067741805743	1.3693666867851946	-0.0262705036231143	0.5201010161114947	1.3822042998263955	0.06873720265811789	0.7502387590890747	1.4340454990671425	0.17652202834159472	0.3946232014624214	-0.1445623130315773	0.1841355856291301	0.323876617227574	-0.3909882874823774	0.1725721763031359	0.24345966072121653	-0.24853589696041603	0.36654140012863057	0.4226653697740171	-0.04997393803212476	0.44708612603457726	0.4685424049534437	0.2288949344560896	0.5284017617054005	0.39025123793526145	0.506861320079889	0.5305074738883012	0.34659268847727476	0.6348299292847631	0.5564517565281978	0.33860266946888595	0.6476826174266918	0.5022237923304997	0.3773172863177106	0.6468911760551262	0.001708970417911426	0.42884412557157114	-0.04202960461083907	-0.06796498214279612	0.4883864837881115	0.24522870428671276	-0.1094427578891746	0.3678610213867024	0.5224127533087904	-0.05767549604605959	0.33715601349674545	0.6441008981614992	-0.10099605708738754	0.2786398116147263	0.6475150561404174	-0.12737303884008136	0.4061433831439289	0.6717441152301412
151	2.6964285714285716	0.3043885045381719	0.4659201024436121	0.5220859374973787	0.2980715774141119	0.5983583521630685	0.9659176352864887	0.2806240658407882	0.6731501700292999	1.3598475991252532	0.2891796059543179	0.4265893786588697	1.360279762926939	0.3272939878155469	0.4717223413584963	1.374189004176743	0.23833957365151048	0.76639396854986	1.4359254775647383	0.08661390890987104	0.4652678594223418	0.5306897463026501	0.06044622923572838	0.5902751022836278	0.9447335852591972	0.05458396746420352	0.6811275383929517	1.3819319822152643	0.01513303905903073	0.4485016459667234	1.3692965178570031	-0.026409041080758484	0.5197784177876834	1.3821182716938663	0.0699742012022515	0.7487352140016365	1.4287809729647047	0.17644109437539165	0.3945445000091543	-0.14464039901873313	0.18400492766866877	0.32368166460471937	-0.3909882093759739	0.1723508526501977	0.243079659201759	-0.2485917014378835	0.36243588156936096	0.4115119666006851	-0.049919115053189966	0.447416687201851	0.4694461896251255	0.23577099288589615	0.5282506596756508	0.390421577873203	0.5070802975265545	0.5323739689820163	0.3318743019971926	0.6311001116346383	0.5564138757129896	0.33840943880257235	0.6475862048421082	0.5027760099081255	0.38696880744573997	0.6489806302442429	0.0017910049750806292	0.428883517338048	-0.03846086667147825	-0.06821933280421255	0.4882279542669049	0.24844000900196114	-0.10458051948222244	0.3553936827347479	0.5199501879951728	-0.05710355995926785	0.3387142794793425	0.6485845599812395	-0.09866335716675814	0.29036856555163815	0.6504423335498917	-0.12734289258468898	0.40615243002998896	0.6716338052142563
152	2.7142857142857144	0.30400264198970234	0.46602848081867204	0.5256637983371392	0.29806139414033667	0.5984512733721709	0.9658502362633906	0.2805894754030922	0.6732057373137688	1.3599474794323152	0.28777636992565964	0.4336949644655399	1.3641983920785736	0.33094627964968343	0.48208741852573167	1.3794940581569988	0.23826065646711547	0.766508440969103	1.4362162222614718	0.08655594665050056	0.46518004276890607	0.530573007024958	0.060386863798711915	0.5903312071163732	0.9445478339766393	0.0545593979510206	0.6809045553566945	1.3818461010440948	0.019783644238015326	0.4355535064190539	1.3625097060136724	-0.026250898357576047	0.5202067001395329	1.382049572028742	0.0687310873293534	0.7494049651164658	1.4336961928405962	0.17637250696180728	0.39438206379396606	-0.1446658052134509	0.17758368102191707	0.3237511428592564	-0.3930323125555823	0.16811897273451362	0.24176897489208654	-0.25131634544761305	0.3584306585227965	0.4104036382978293	-0.049907163160869045	0.4425920071463278	0.45682660417290044	0.22782714135748297	0.528360716335476	0.3904027918942312	0.5070394957895034	0.5232545927454348	0.31028786802808556	0.6262751901919541	0.5469472708258378	0.3161233579430886	0.6421426233352561	0.5030297928759869	0.3870955130270845	0.6489596307563577	0.0016341288755161332	0.428697672576409	-0.03835112445326328	-0.0682053524999883	0.4880922544927122	0.24860749537469515	-0.10897903361709665	0.3697488521830621	0.5269015072687856	-0.057057710225728406	0.33881084655818544	0.648653607505403	-0.09785757290143936	0.2904360397020779	0.6471863542580031	-0.12728020436879023	0.4067736983569937	0.6713439315085011
153	2.732142857142857	0.2994343486520151	0.4637889962574574	0.5178087159692064	0.2973555105732997	0.598702643207012	0.9702273618258475	0.2806867240873418	0.6731998979496855	1.3600079328251122	0.2876695879330835	0.4339221623474055	1.3642565702599476	0.3308225492493409	0.4821970461186747	1.3795773589359057	0.23829976372870418	0.766455504596632	1.4370670092532556	0.08588322119880308	0.4639843748654044	0.5262206559683473	0.060648537384724345	0.589787853981047	0.9486565860361931	0.05452671738925653	0.6808932012470664	1.3818041266345027	0.020165317207825748	0.4490051344587694	1.369424453686263	-0.02617959261202955	0.519616726053493	1.3823077568928783	0.06846919724506047	0.7500532432060519	1.4346318489216945	0.17625429118756772	0.3944294914895342	-0.1447577724059969	0.17334673285321686	0.32334273212347886	-0.39059580617787765	0.16477477613634112	0.2527401758755785	-0.24903543557319707	0.358310463289749	0.41023107162044037	-0.05002001634551671	0.442424821243321	0.4565688723002519	0.2277093458125418	0.5239704123060348	0.38916960365161857	0.50676467766985	0.5202032499096957	0.323057127105507	0.6261975973519579	0.5406125198637057	0.3192166622876664	0.6429862069868297	0.5022694551481177	0.3775345171649193	0.6470394898987315	-0.0014705469108075942	0.41689545267831096	-0.03841524601035417	-0.06853895303828117	0.4881506805698453	0.2519405548401161	-0.10941900684440321	0.3684766201981843	0.5229010905845063	-0.05715172908888201	0.3391621545426818	0.6487249122873875	-0.09866713083372226	0.291253917059888	0.6510940109762926	-0.12777304030813044	0.40491932409773823	0.6676435682876051
154	2.75	0.3001449791254116	0.46504533526873204	0.5219281816558402	0.2973691342590422	0.5985867287122644	0.9703682999235174	0.2806985037541138	0.6732416978702139	1.3600655153410854	0.28767183993605433	0.43374255075724605	1.3642026972538286	0.3308906967353463	0.4823974985195102	1.379647990287452	0.2383475809416179	0.7665608973615756	1.436939603927386	0.08232150998081723	0.4786994156782577	0.5335990853395933	0.0606019699174465	0.5897959661406244	0.9486265519689098	0.05448062716707679	0.6808941718081155	1.3816885773355845	0.020135074150754228	0.44881321773899296	1.369558856655747	-0.026167215249067406	0.5192101604929482	1.382503954614648	0.06871350022765753	0.7499951221083749	1.434152130012756	0.17609985948008489	0.39451276319281586	-0.14479952322634362	0.17321456961108497	0.32309055781556323	-0.3905819746967042	0.16158212537080863	0.24297231218310889	-0.24819309073591372	0.35532427188891913	0.4235016637241214	-0.049833536562996265	0.4378515261598785	0.4447045771905444	0.22672085610452583	0.5238235123650513	0.3892456229277627	0.5068901233981522	0.5227931934968694	0.30929441988856116	0.6259430422641209	0.5405263944055776	0.31870599873081257	0.6427766728860104	0.5032150951270506	0.3876765464781922	0.6487691240524652	-0.001568323426309426	0.417067965465623	-0.038462056801885226	-0.06811695857891874	0.4882052609652503	0.25289614115344955	-0.11189356268521505	0.3931244990155913	0.5279146905241555	-0.05711448507955467	0.339688704431726	0.6490812674501377	-0.09715312738808744	0.30468285957274377	0.6578259827319666	-0.12099662429914011	0.40433284399263325	0.6680602499501432
155	2.767857142857143	0.29929274800511413	0.46373199972229445	0.5177967431596981	0.29728775004331087	0.5985417000991388	0.9703400540831977	0.28071341461086824	0.6729736784223231	1.3599438162810096	0.2875005000558481	0.43308424025067904	1.364049543870015	0.33066497054792576	0.48142022111414906	1.3794480430406406	0.23839187387239866	0.7663662088282341	1.4368019140209902	0.07789828836950295	0.4779511113561153	0.533864729509719	0.059772108335713676	0.5879061486897932	0.9434790396972403	0.05455909617542658	0.6808758217474942	1.3817048510077592	0.022885500387148622	0.4632546707112033	1.3760036420334119	-0.02622465683637582	0.5202989403840441	1.3824685145296651	0.06870096844924196	0.7500963974527793	1.434254881960914	0.17244700010521982	0.4065769452467029	-0.14506014813499893	0.16686858933494333	0.3229556778639109	-0.3903709619511262	0.1572820543372605	0.2414149259274949	-0.24783991078113432	0.35514900241254166	0.4236877858781359	-0.04981220644286686	0.43770850417833473	0.44470236035786703	0.22659580399202972	0.5226891925586253	0.38793660791096884	0.5030533699568176	0.5217043032267699	0.3078134701735069	0.6222222425144837	0.5422948068786061	0.30539149002689364	0.6392240261781187	0.5071374561478583	0.38881270313473276	0.6485784351665137	-0.0017747933628854552	0.4166654181059601	-0.038317770850132105	-0.0685877786641384	0.4883993956300844	0.25207871448371477	-0.11201466163861956	0.39321339252022774	0.5279954681010123	-0.06143500568821843	0.35140621024441643	0.6522267939637815	-0.09049766158831661	0.31860059673999624	0.6612490608728692	-0.12061244743046477	0.4061823098972458	0.6724164130619983
